<svg id="Capa_1" enable-background="new 0 0 512 512" height="512" viewBox="0 0 512 512" width="512" xmlns="http://www.w3.org/2000/svg"><g><path   d="m405.102 0h-298.204c-58.944 0-106.898 47.954-106.898 106.898v298.203c0 58.945 47.954 106.899 106.898 106.899h298.203c58.945 0 106.899-47.954 106.899-106.898v-298.204c0-58.944-47.954-106.898-106.898-106.898zm-298.204 482c-42.402 0-76.898-34.496-76.898-76.898v-200.761h79.52c-8.362 19.351-13.006 40.669-13.006 63.055 0 87.941 71.545 159.486 159.486 159.486s159.486-71.545 159.486-159.486c0-22.385-4.645-43.704-13.006-63.055h79.52v200.761c0 42.402-34.496 76.898-76.898 76.898zm298.204-452c42.402 0 76.898 34.496 76.898 76.898v67.442h-96.555c-28.984-40.206-76.207-66.432-129.445-66.432s-100.461 26.226-129.445 66.432h-96.555v-67.442c0-42.402 34.496-76.898 76.898-76.898zm-19.616 237.396c0 71.399-58.087 129.486-129.486 129.486s-129.486-58.087-129.486-129.486 58.087-129.487 129.486-129.487 129.486 58.087 129.486 129.487z"/><path d="m397.296 85h30v30h-30z"/><path d="m164.882 267.396c0 50.242 40.875 91.117 91.118 91.117s91.118-40.875 91.118-91.117c0-50.243-40.875-91.118-91.118-91.118s-91.118 40.874-91.118 91.118zm152.236 0c0 33.7-27.418 61.117-61.118 61.117s-61.118-27.417-61.118-61.117 27.418-61.119 61.118-61.119 61.118 27.418 61.118 61.119z"/></g></svg>