<?xml version="1.0" encoding="utf-8"?>
<!-- Generator: Adobe Illustrator 21.0.0, SVG Export Plug-In . SVG Version: 6.00 Build 0)  -->
<svg version="1.1" id="Layer_1" xmlns="http://www.w3.org/2000/svg" xmlns:xlink="http://www.w3.org/1999/xlink" x="0px" y="0px"
	 viewBox="0 0 2000 2000" style="enable-background:new 0 0 2000 2000;" xml:space="preserve">
<path d="M1884.9,1503.1c-4-23.6-13.5-45.1-34.9-52.9c10.7-29.8,9.8-63.5-2.3-92.7c44.1-30,30.8-111.7-20.5-126.2
	c1-170,2-340.1,3-510.1c0.2-38.3-0.6-79.9-24.2-110c-18.8-24-48.7-36.1-77.1-47.1C1520.4,483,1311.8,402,1103.3,320.9
	c-41-15.9-83.3-32.1-127.2-31.1c-37.5,0.9-73.5,14.3-108.6,27.5C767.1,355,666.9,392.7,566.8,430.4s-200.3,75.4-300.5,113.1
	c-52.2,19.7-115,32.2-142.4,86.9c-17,33.3-15.7,76.5,7.2,106c17,22,43.1,34.6,68.3,46.4c78.6,36.9,157.3,73.9,235.9,110.8
	c-0.1,92.2-0.3,184.5-0.4,276.7c0,27.6,0.1,56.1,11,81.4c15.3,35.3,49,58.9,83,77.1c128.8,69,279,86.1,425.1,87.4
	c152.3,1.3,308.7-14.3,445.2-81.8c37-18.3,74.3-42.5,91-80.3c11.7-26.4,11.8-56.3,11.7-85.2c-0.2-92.4-0.4-184.8-0.7-277.3
	c101.4-42.7,200-91.8,295.2-147c-1,162.1-1.9,324.3-2.9,486.4c-51.4,14.6-64.5,96.4-20.3,126.4c-12.4,28.7-13.3,62.2-2.5,91.5
	c-34.4,17.6-38.7,64.1-38.5,102.8c0.3,43.7,0.5,87.3,0.8,131c0.1,9.6,0.7,20.6,8.2,26.6c5.8,4.6,13.8,4.8,21.2,4.8
	c33.3-0.2,66.6-0.3,100-0.5c7.2,0,15.1-0.4,20.2-5.4c5.2-5.1,5.5-13.3,5.5-20.6c-0.2-50-0.4-99.9-0.6-149.9
	C1887.4,1526.7,1886.8,1514.6,1884.9,1503.1z M1807.7,1437.9c4.2,0.3,0.2-0.1-0.8-0.4c-0.7-0.2-2.4-1.1-2.4-1.1
	c-0.6-0.3-1.1-0.6-1.7-1c-0.8-0.8-1.7-1.7-2.5-2.5c2.7,2.7,0.2,0.2-0.4-0.7c-0.4-0.6-0.7-1.3-1.1-1.9c-0.3-1.1-0.6-2.2-0.8-3.3
	c0,0,0,0,0-0.1c0-0.7,0-1.4,0-2.1c0-2.3,0-4.5,0-6.8c0-7.2,0-14.4,0-21.7c0-2.7,0-5.4,0-8.1c0-0.6,0-1.2,0-1.8c0-1,0.5-3.3,0.3-3
	c0.2-0.7,0.3-1.4,0.6-2.1c0.6-1,1.2-2,1.8-3c0.1-0.1,0.1-0.2,0.1-0.2c0.1-0.1,0.3-0.2,0.5-0.4c0.4-0.3,1.9-1.6,1.9-1.7
	c0.6-0.4,1.2-0.7,1.8-1.1c0.1-0.1,0.2-0.1,0.3-0.2c0.8-0.3,1.7-0.5,2.5-0.8c-0.1,0.1,1.9-0.3,2.7-0.3c1.3,0,1.4,0,2.7,0.1
	c-4.2-0.3-0.2,0.1,0.8,0.4c0.3,0.1,0.6,0.2,0.9,0.3c-0.7-0.2,1.6,0.8,2.2,1.1c0.9,0.6,3.4,3.1,0.7,0.4c0.9,0.9,1.8,1.8,2.7,2.7
	c-2.8-2.8,0.1,0.4,0.7,1.3c0.2,0.3,0.4,0.8,0.6,1.2c0.3,0.9,0.5,1.8,0.8,2.7c0.1,0.2,0.1,0.3,0.2,0.4c0,0.1,0,0.3,0,0.4
	c0,0.4,0,1,0,1.5c0,1.7,0,3.4,0,5.2c0,6.9,0,13.8,0,20.7c0,4.8,0.1,9.6-0.1,14.5c0-0.3-0.2,1.9-0.4,2.6c-0.1,0.5-0.3,0.9-0.4,1.3
	c-0.1,0.2-0.2,0.4-0.3,0.7c-0.4,0.6-0.8,1.2-1.1,1.8c-0.2,0.2-1.3,1.5-1.7,1.9c-0.2,0.2-0.3,0.3-0.4,0.5c-0.1,0.1-0.2,0.1-0.2,0.1
	c-0.6,0.4-3.5,1.7-3.3,1.8c-0.7,0.2-1.5,0.4-2.2,0.7c-0.2,0-0.3,0.1-0.5,0.1c-0.6,0-1.2,0.1-1.7,0.1
	C1809.1,1438,1809,1438,1807.7,1437.9z M1802.6,1435.3C1800.7,1434.2,1801.9,1434.8,1802.6,1435.3L1802.6,1435.3z M1799.1,1380.7
	C1799.4,1379.5,1799.3,1380,1799.1,1380.7L1799.1,1380.7z M1782.5,1320.6C1784.5,1322.7,1783.1,1321.5,1782.5,1320.6
	C1782.6,1320.7,1782.6,1320.7,1782.5,1320.6z M1845.3,1294.4C1845.4,1295.2,1845.4,1295.9,1845.3,1294.4L1845.3,1294.4z
	 M1796.4,1266.9C1795.7,1267.2,1794.9,1267.4,1796.4,1266.9L1796.4,1266.9z M1764.5,729.1c-26,20.3-62.2,32-91.7,45.8
	c-61.2,28.7-122.4,57.3-183.7,86c-134.9,63.2-269.9,126.3-404.9,189.5c-34.1,16-73.2,40.8-111.7,42.8c-41.7,2.2-83-24.1-119.6-41.2
	c-134.7-63-269.3-126-404-189.1c-62.1-29.1-124.3-58.2-186.4-87.3c-29.6-13.9-69.4-26.1-94.4-48.3c-45.7-40.5-21.6-101.6,29.3-122.7
	c231.1-86.4,462.3-172.8,693.4-259.2c44.7-16.7,84.3-35.1,133.6-18c33.6,11.7,66.7,25.7,99.9,38.5
	c144.1,55.6,288.2,111.2,432.3,166.8c52.4,20.2,104.8,40.4,157.2,60.6c8.9,3.4,18,6.5,26.8,10.3c23,10,40.1,27.9,47.7,48.1
	c-211.7,11-423.4,21.9-635.1,32.9c-25.2,1.3-50.4,2.6-75.6,3.9c0-10.6,0-21.3,0-31.9c0-4.8-2.5-10.1-6.5-13.4
	c-12.3-22.8-40.2-36.4-65-42c-38.7-8.6-86.2-5.2-119.2,18.9c-11.3,8.2-20.9,19-25.1,32.2c-1.5,2.5-2.5,5.5-2.5,8.6
	c0,22.6-4.3,48.6,9.5,68.2c16.2,23,45.1,34.5,72,38.6c31.6,4.8,64.4,1.8,93.6-11.7c15.6-7.2,29.7-18.7,37.3-33.7
	c216.4-11.2,432.8-22.4,649.2-33.6c23.7-1.2,47.3-2.5,71-3.7C1789.4,701,1780.8,716.3,1764.5,729.1z M1467.8,1201.8
	c-0.7,58.2-56.4,90.6-104,112.6c-106.4,49.2-229.8,64.5-345.6,68.6c-125.7,4.5-255.1-5.5-375.8-42.7
	c-58.8-18.1-168.5-54.5-173.3-129.9c-2.3-35.7,0-72.2,0-107.9c0-64.4,0-128.8,0-193.2c81.2,38,162.3,76,243.5,114
	c54.7,25.6,109.5,51.2,164.2,76.8c50.8,23.8,99.7,36.6,154.7,12.1c109.1-48.7,216.6-101.4,324.8-152c37.2-17.4,74.4-34.8,111.6-52.2
	c0,47.7,0,95.4,0,143.1C1467.8,1101.2,1468.4,1151.5,1467.8,1201.8z M902.2,650.8c20.9-18.9,55.1-22,81.8-19.3
	c15,1.5,30.3,5.8,43.2,13.8c4.5,2.8,9.6,7,12.3,10.5c3.3,4.5,4.3,8.3,4.4,11.5c-0.1,2.7-0.8,5.6-2.8,9c-2.2,3.7-5.2,6.8-9,9.7
	c-10.9,8.4-24.5,12.8-37.8,15.4c-27.9,5.6-61.2,2.7-85.6-12.8c-8-5.1-14.4-11.7-15.7-19.8c0.3,1.1,0.3-3.9,0-3c0.3-1.7,1.4-5,1-4.2
	C896,656.9,898.5,654.2,902.2,650.8z M1782.8,1277.5C1783.4,1276.7,1784,1276.1,1782.8,1277.5L1782.8,1277.5z M1775.4,1296.3
	c0-0.8,0.8-5.3,0-1.2c0.2-0.9,0.3-1.8,0.5-2.8c0.5-2.3,1.2-4.4,2-6.7c0.1-0.2,0.1-0.3,0.1-0.5c0.1-0.2,0.2-0.3,0.3-0.6
	c0.7-1.2,1.3-2.4,2-3.6c0.6-1,1.2-1.9,1.8-2.8c0.1-0.2,0.3-0.4,0.5-0.7c1.4-1.6,2.8-3.1,4.3-4.6c0,0,0.5-0.4,1-0.9
	c0.5-0.4,1.9-1.5,2-1.5c2.2-1.5,4.5-2.7,6.9-3.9l0,0c1.3-0.4,2.6-0.9,3.9-1.3c0.9-0.3,1.8-0.5,2.7-0.7c0,0,0.9-0.2,1.7-0.3
	c0.8-0.1,2.2-0.2,2.2-0.2c1.2-0.1,2.4-0.1,3.6-0.1s2.4,0.1,3.6,0.2c0.2,0,0.4,0,0.6,0c0.2,0.1,0.3,0.1,0.6,0.2
	c2.7,0.7,5.4,1.4,8,2.2c0.1,0,0.2,0.1,0.3,0.1l0.1,0.1c1.2,0.9,2.9,1.5,4.2,2.3c0.8,0.5,1.5,0.9,2.3,1.4c0.4,0.3,0.8,0.5,1.1,0.8
	c0.2,0.2,0.4,0.4,0.8,0.7c1.6,1.6,3.2,3.2,4.8,4.8c0.2,0.2,0.4,0.3,0.5,0.5c0.1,0.1,0.1,0.2,0.2,0.4c0.8,1.1,1.5,2.2,2.2,3.4
	s1.3,2.4,2,3.6c0.1,0.2,0.2,0.4,0.3,0.5c0,0.1,0.1,0.3,0.2,0.5c0.9,2.7,1.6,5.3,2.2,8c0,0.1,0.1,0.3,0.1,0.5c0.1,1.7,0.2,3.3,0.3,5
	c0,1.4-0.1,2.9-0.2,4.3c0,0.1,0,0.1,0,0.2c-0.4,2.2-0.9,4.3-1.5,6.4c-0.3,1.1-0.7,2.2-1.2,3.3c-0.1,0.1-0.1,0.2-0.2,0.4
	c-1.3,2.4-2.7,4.7-4.2,7c-0.1,0.1-0.1,0.2-0.2,0.2s-0.1,0.1-0.1,0.1c-0.8,0.6-1.5,1.7-2.3,2.5c-0.6,0.6-3.9,3.5-3.7,3.4
	c-1.5,1.1-3.1,2.1-4.7,3c-0.8,0.4-1.6,0.8-2.4,1.3c-0.3,0.2-0.5,0.3-0.7,0.4s-0.6,0.2-1,0.3c-2.2,0.7-4.4,1.4-6.7,1.9
	c-0.4,0.1-1.3,0.2-1.8,0.3c-0.7,0.1-1.4,0.1-2.2,0.2c-2.4,0.1-4.8-0.1-7.2-0.2c-0.1,0-0.3-0.1-0.4-0.1c-1.4-0.3-2.7-0.6-4.1-1
	c-1.3-0.4-2.6-0.8-3.9-1.3l0,0c0.1,0.1,0.1,0.1,0.2,0.1c-0.1,0-0.2-0.1-0.3-0.1c-0.6-0.2-1.7-0.9-1.1-0.6c-1.6-0.8-3.1-1.6-4.6-2.6
	c-0.9-0.6-1.8-1.3-2.7-1.8c-0.1-0.1-0.2-0.2-0.4-0.4c-1.9-1.9-3.7-3.8-5.6-5.7c-0.7-1.1-1.5-2.2-2.2-3.3c-0.5-0.8-0.9-1.6-1.3-2.4
	c-0.2-0.4-0.9-2.1-1.1-2.4c-0.6-1.7-1.2-3.4-1.6-5.1c-0.2-0.9-0.4-1.8-0.6-2.7c-0.1-0.3-0.1-0.5-0.2-0.6c0-0.3,0-0.7-0.1-1.2
	C1775.3,1300.7,1775.3,1298.5,1775.4,1296.3z M1766.7,1516.9c0.3-21.2,13.8-40.1,35.3-44.4c25.3-5,50.2,14,52.1,39.6
	c2.1,27.9,0.1,56.6,0.1,84.5s0,55.8,0,83.6c-29.2,0-58.3,0-87.5,0C1766.6,1625.8,1766,1571.3,1766.7,1516.9z"/>
</svg>
