<?xml version="1.0" encoding="utf-8"?>
<!-- Generator: Adobe Illustrator 21.0.0, SVG Export Plug-In . SVG Version: 6.00 Build 0)  -->
<svg version="1.1" id="Layer_1" xmlns="http://www.w3.org/2000/svg" xmlns:xlink="http://www.w3.org/1999/xlink" x="0px" y="0px"
	 viewBox="0 0 2000 2000" style="enable-background:new 0 0 2000 2000;" xml:space="preserve">
<path d="M1768.4,826.1c0-55,10-126.1-14-177.4c-24.3-52.1-76.7-82.9-133.3-84.3c-11.1-0.3-22.2,0-33.2,0c-63.1,0-126.1,0-189.2,0
	c-53.6,0-107.2,0-160.8,0c-11.6-34.8-23.2-69.6-34.9-104.4c-0.3-0.9-0.8-1.4-1.2-2.1c-1.9-4.9-6.2-8.8-13.1-8.8
	c-126.2,0-252.4,0-378.6,0c-6.8,0-12.2,4.7-14.3,10.9c-11.6,34.8-23.2,69.5-34.8,104.3c-32.2,0-64.3-0.1-96.5-0.2
	c-0.4-11.1-2-21.8-8.3-31.8c-10.5-16.5-28.4-25.4-47.7-25.6c-25.7-0.3-51.3,0-77,0c-9.8,0-19.5,0-29.3,0
	c-20.8,0.6-40.1,11.7-49.3,30.8c-4.2,8.7-5.2,17.6-5.5,26.7c-21.3,0.1-42.6,0-64,0.1c-86.7,0.7-152.1,64.8-152.8,151.9
	c-0.6,65.8,0,131.7,0,197.6c0,162.8-3.6,326.1,0,488.8c1.9,89.1,71.7,147.7,157.8,148c51.4,0.2,102.8,0,154.2,0
	c196.4,0,392.9,0,589.3,0c154.9,0,309.9,0,464.8,0c8.3,0,16.6,0,24.9,0c66.3-2.1,125.3-44.8,142.1-110.3c5.6-21.7,4.6-44,4.6-66.2
	c0-83.1,0-166.1,0-249.2C1768.4,1025.4,1768.4,925.8,1768.4,826.1z M1738.7,1402.1c-1.7,65.9-50.4,116.9-116.9,119
	c-104.9,0-209.8,0-314.8,0c-197.9,0-395.9,0-593.8,0c-111.6,0-223.8,3.4-335.3,0c-65.7-2-115.5-51.4-117.6-117.2
	c-0.5-15.6,0-31.2,0-46.8c0-83.1,0-166.3,0-249.4c0-95.3,0-190.7,0-286c0-13.2-0.7-27.8-1.3-43c203.8,0,407.6,0,611.3,0
	c-8.6,8.6-16.9,17.6-24.7,27.1c-105,128.5-119.6,314-33.5,456.5c85.8,141.9,254.2,215.8,416.8,184.5
	c185-35.7,317.7-202.6,319.7-389.1c-1.8-164.7-103.7-313.8-258.6-371.9c-47.9-18-98.3-25.7-148.2-24.1c-1-0.2-1.9-0.6-3-0.6
	c-258.3,0-516.6,0-774.9,0c-30.6,0-61.1,0-91.7,0c2.2-5,4.5-9.9,7.5-14.4c36.3-54.7,93.4-52.4,150-52.4c66.4,0,132.7,0,199.1,0
	c195.3,0,390.6,0,585.9,0c1,0,1.9,0,2.9,0c3.2,0,6.4,0,9.7,0l0,0c128.2,0,256.3-0.5,384.5,0c77.9,0.3,126.8,55.1,126.8,131.2
	c0,70.2,0,140.4,0,210.6C1738.7,1091.1,1742.7,1246.9,1738.7,1402.1z M1224.9,697.9c170.4,34.9,292.1,186.8,293.9,359.7
	c-1.6,152.4-96.4,291.9-240.5,344.6c-143.4,52.5-308.1,8.6-406.8-107.8C771.1,1175.7,757.4,1001,837.8,868
	C917,736.8,1074.6,667.2,1224.9,697.9z M903.6,748.9c-179.9,0-359.8,0-539.7,0c-31.1,0-62.3,0-93.4,0c0-19.4,0-38.8,0-58.3
	c244.5,0,488.9,0,733.3,0C967.9,705.1,934.1,724.6,903.6,748.9z M502.2,536.5c28,0,56,0,84,0c9.7,0,22.5-2,31.8,1.4
	c13,4.7,16.1,15.2,16.8,26.6c-49.8,0-99.7,0-149.5,0c-2.8,0-5.6,0-8.5,0c0.1-2.9,0.1-5.9,0.7-8.6
	C480.4,544.3,490.7,536.8,502.2,536.5z M820.9,478.9c119.1,0,238.2,0,357.2,0c9.5,28.5,19.1,57,28.6,85.6c-113.1,0-226.2,0-339.3,0
	c-25,0-50.1,0-75.1,0C801.8,535.9,811.3,507.4,820.9,478.9z M1601.4,635.2c-10.2-1.1-20.7-0.3-30.9-0.3c-18.1,0-36.1,0-54.2,0
	c-11.4,0-22.9-0.3-34.3,0c-24.6,0.5-47,16.3-52.9,40.8c-6.6,27.3,9,55.3,35.5,64.3c11.3,3.9,24.3,2.7,36.2,2.7c31.8,0,63.6,0,95.4,0
	c29-1,52.8-23.1,53.8-52.5C1650.9,662.1,1628.9,638.1,1601.4,635.2z M1596.1,712.9c-22.3,0-44.6,0-66.9,0c-13.1,0-26.2,0-39.4,0
	c-9.4,0-18.3,0.2-25.6-7.1c-12.9-12.9-6.9-35.6,10.7-40.4c7.3-2,16.2-0.9,23.7-0.9c28.1,0,56.3,0,84.4,0c10.8,0,21.9-1.3,30.3,7.1
	C1628.6,687,1617,712.2,1596.1,712.9z M908,857.1c-83.5,102.2-95.1,249.8-26.7,363.2c68.1,112.9,202,171.9,331.4,147.2
	c147.9-28.2,253.1-161.1,255.1-310c-1.8-131.1-82.2-249.6-205.6-296C1137.6,714.8,992.1,754.2,908,857.1z M1208.7,777.1
	c133.2,27.3,227.6,145.5,229.4,280.5c-1.6,118.8-74.8,227.7-187.5,268.7c-111.7,40.7-239.4,6.9-316.6-83.4
	c-78-91.3-89.7-226.3-29-329.8C966,808.9,1090,752.8,1208.7,777.1z"/>
</svg>
