<?xml version="1.0" encoding="utf-8"?>
<!-- Generator: Adobe Illustrator 21.0.0, SVG Export Plug-In . SVG Version: 6.00 Build 0)  -->
<svg version="1.1" id="Layer_1" xmlns="http://www.w3.org/2000/svg" xmlns:xlink="http://www.w3.org/1999/xlink" x="0px" y="0px"
	 viewBox="0 0 2000 2000" style="enable-background:new 0 0 2000 2000;" xml:space="preserve">
<path d="M1679.8,476c-2.1-78.9-63.7-129.4-139.7-129.4c-49.8,0-99.7,0-149.5,0c-183.9,0-367.8,0-551.6,0c-128.6,0-257.2-1-385.8,0
	c-76.6,0.6-133.9,56.6-134.6,133.6c-0.6,58.8,0,117.6,0,176.3c0,164.2,0,328.5,0,492.7c0,77.3,46.5,142.9,129.1,145
	c36.5,0.9,73.1,0,109.6,0c59.4,0,118.8,0,178.1,0c0,47.9,0,95.9,0,143.8c-14.5,0-29.1,0-43.6,0c-33.2,0-66.5,0-99.7,0
	c-18.3,0-18.4,28.5,0,28.5c52.5,0,105,0,157.5,0c145.7,0,291.4,0,437.1,0c20.6,0,41.2,0,61.8,0c19.3,0,38.6,0,57.9,0
	c33.2,0,66.5,0,99.7,0c18.3,0,18.4-28.5,0-28.5c-47.8,0-95.6,0-143.3,0c0-47.9,0-95.9,0-143.8c88.3,0,176.5,0,264.7,0c8,0,16,0,24,0
	c59.6-2,112.8-41.8,125.3-101.5c3.7-17.8,2.8-36.2,2.8-54.2c0-74.3,0-148.5,0-222.8C1679.8,769.3,1683.7,622.3,1679.8,476z
	 M811.6,1438c-15.9,0-31.7,0-47.6,0c0-47.4,0-94.8,0-142.2c141,0,281.9,0,422.9,0c15.8,0,31.7,0,47.6,0c0,47.4,0,94.8,0,142.2
	C1093.5,1438,952.6,1438,811.6,1438z M1651.4,1163.8c-1.8,56.4-42.5,99.9-99.7,101.9c-282.8,0-565.5,0-848.3,0
	c-64.7,0-129.4,0-194.1,0c-43.5,0-92,6.4-127.5-24.3c-45.3-39.1-34.6-106.4-34.6-160c0-84.2,0-168.3,0-252.5c0-84.5,0-169,0-253.5
	c0-44.9-10.1-110.3,13.7-150.9c31.3-53.2,85.5-49.5,137.6-49.5c63.5,0,126.9,0,190.4,0c180.1,0,360.2,0,540.3,0
	c107.1,0,214.8-3.7,321.9,0c56.2,1.9,98.2,44,100.3,99.9c0.5,13.4,0,27,0,40.5c0,74.5,0,149,0,223.5
	C1651.4,880.3,1655.8,1022.5,1651.4,1163.8z M1509.3,1513.6c-20.5-14.5-42.6-14.3-66.1-14.3c-72.8,0-145.5,0-218.3,0
	c-220.8,0-441.6,0-662.4,0c-54.8,0-109.9-1.8-164.6,0c-51.2,1.7-91.5,47.8-75.6,99.3c11.7,37.9,46.3,53.7,83,53.9
	c175,1.3,350,0,525,0c175.1,0,350.5,3,525.6,0c3.1-0.1,6.2,0,9.3,0C1535.8,1648.1,1571.4,1557.5,1509.3,1513.6z M1465.1,1624
	c-131.4,0-262.8,0-394.1,0c-195.6,0-391.1,0-586.7,0c-40.9,0-137.1,15.9-137.1-48.1c0-64.6,99.3-48.1,140.4-48.1
	c195.4,0,390.7,0,586.1,0c92,0,184.1,0,276.1,0c39.2,0,82.1-5,121.1,0.7C1529.4,1537,1523.4,1620.4,1465.1,1624z M1639.8,1504.5
	c7.5-16.4,5.7-35.7-10.1-49.1c-16.8-14.2-41.9-16-55.9-32.7c-3.1-3.7-5.3-9.7-5.1-13.5c0-0.7,0.2-2.8,0.2-3.4
	c0.2-0.5,0.9-3.3,1.1-3.9c0.9-2.8-0.1-0.4,0.9-2.4c1.1-2.2,2.4-4.3,3.8-6.3c12.3-17.1,38.3-26,59.7-30.1c18-3.5,10.4-30.9-7.6-27.5
	c-37.4,7.2-92,32.8-86.1,79.4c2.4,19.5,16.4,34.5,33.2,43.6c11.2,6.1,24.2,8.7,34.6,16.3c3.2,2.3,5.3,4.6,6.5,6.6
	c1.3,1.9,1.6,2.9,1.3,4.9c0,0.2-0.1,0.5-0.1,0.8c-0.1,0.5-0.2,1-0.3,1.4c-0.2,0.7-0.4,1.4-0.7,2.1c0,0,0,0,0,0.1
	c-0.7,1.4-1.5,2.7-2.3,4.1c-0.3,0.5-1,1.4-1.4,2c-1,1.2-2.1,2.2-3.2,3.3c-12.4,1.4-24.6,6.2-34.7,14.4c-13.2,10.8-21,26.7-22.9,43.5
	c-1,8.9-0.4,18.1-0.4,27.1c0,36.1,27.6,67.4,64.7,67.4c35.5-0.6,64.2-29.2,64.7-64.7c0.1-7.8,0.1-15.6,0-23.4
	c-0.2-16-5.8-30.9-16.3-43.1C1656.9,1513.5,1648.7,1508.1,1639.8,1504.5z M1643.7,1610.1c-6.4,8.4-17.5,13.7-28.6,13.9
	c-20.2,0-36-16.8-36.3-36.6c-0.1-7.2,0-14.4,0-21.6c0-9.1,1.8-16.5,7.6-24.2c11.8-15.5,36.2-18.5,51.2-6
	c8.4,6.9,13.2,16.5,13.6,26.6c0.3,7,0,14.1,0,21.1C1651.4,1593.8,1650.3,1601.5,1643.7,1610.1z M1592.8,435.2
	c-133.5,0-266.9,0-400.4,0c-213,0-426,0-638.9,0c-49.2,0-98.4,0-147.6,0c-7.7,0-14.2,6.5-14.2,14.2c0,216.8,0,433.6,0,650.4
	c0,30.5,0,61,0,91.4c0,7.7,6.5,14.2,14.2,14.2c133.5,0,267,0,400.4,0c213,0,426,0,638.9,0c49.2,0,98.4,0,147.6,0
	c3.9,0,6.8-1.5,9.1-3.5c0.3-0.2,0.7-0.5,1-0.7c0.2-0.3,0.4-0.6,0.7-0.9c2.1-2.3,3.6-5.2,3.6-9.1c0-216.8,0-433.6,0-650.4
	c0-30.5,0-61,0-91.5C1607,441.8,1600.5,435.2,1592.8,435.2z M1192.3,1177.1c-213,0-426,0-638.9,0c-44.5,0-88.9,0-133.4,0
	c0-212,0-424.1,0-636.1c0-25.7,0-51.5,0-77.2c128.7,0,257.5,0,386.2,0c213,0,426,0,638.9,0c44.5,0,88.9,0,133.4,0
	c0,212.1,0,424.1,0,636.1c0,25.7,0,51.5,0,77.2C1449.8,1177.1,1321.1,1177.1,1192.3,1177.1z"/>
</svg>
